<svg width="24" height="24" viewBox="0 0 24 24" fill="none" xmlns="http://www.w3.org/2000/svg">
<path d="M13.5998 11.9998L10.7498 14.8498C10.6831 14.9123 10.6498 14.9904 10.6498 15.0841C10.6498 15.1779 10.6831 15.2581 10.7498 15.3248C10.8165 15.4081 10.8998 15.4456 10.9998 15.4373C11.0998 15.429 11.1831 15.3915 11.2498 15.3248L14.0498 12.5248C14.1998 12.3748 14.2748 12.1998 14.2748 11.9998C14.2748 11.7998 14.1998 11.6248 14.0498 11.4748L11.2498 8.6748C11.1831 8.60814 11.0998 8.57064 10.9998 8.5623C10.8998 8.55397 10.8165 8.59147 10.7498 8.6748C10.6831 8.74147 10.654 8.8248 10.6623 8.9248C10.6706 9.0248 10.7081 9.10814 10.7748 9.1748L13.5998 11.9998ZM12.0041 20.6998C10.8012 20.6998 9.67014 20.4716 8.6108 20.0151C7.55147 19.5586 6.63005 18.939 5.84655 18.1563C5.06289 17.3736 4.44255 16.4534 3.98555 15.3956C3.52839 14.3376 3.2998 13.2071 3.2998 12.0041C3.2998 10.8012 3.52805 9.67014 3.98455 8.6108C4.44105 7.55147 5.06064 6.63005 5.8433 5.84655C6.62597 5.06289 7.54622 4.44255 8.60406 3.98555C9.66206 3.52839 10.7926 3.2998 11.9956 3.2998C13.1984 3.2998 14.3295 3.52806 15.3888 3.98456C16.4481 4.44106 17.3696 5.06064 18.1531 5.8433C18.9367 6.62597 19.5571 7.54622 20.0141 8.60405C20.4712 9.66205 20.6998 10.7926 20.6998 11.9956C20.6998 13.1984 20.4716 14.3295 20.0151 15.3888C19.5586 16.4481 18.939 17.3696 18.1563 18.1531C17.3736 18.9367 16.4534 19.5571 15.3956 20.0141C14.3376 20.4712 13.2071 20.6998 12.0041 20.6998ZM11.9998 19.9998C14.2331 19.9998 16.1248 19.2248 17.6748 17.6748C19.2248 16.1248 19.9998 14.2331 19.9998 11.9998C19.9998 9.76647 19.2248 7.8748 17.6748 6.3248C16.1248 4.7748 14.2331 3.9998 11.9998 3.9998C9.76647 3.9998 7.8748 4.7748 6.3248 6.3248C4.7748 7.8748 3.9998 9.76647 3.9998 11.9998C3.9998 14.2331 4.7748 16.1248 6.3248 17.6748C7.8748 19.2248 9.76647 19.9998 11.9998 19.9998Z" fill="black"/>
</svg>
