<svg width="24" height="24" viewBox="0 0 24 24" fill="none" xmlns="http://www.w3.org/2000/svg">
<path d="M10.4002 11.9998L13.2502 14.8498C13.3169 14.9123 13.3502 14.9904 13.3502 15.0841C13.3502 15.1779 13.3169 15.2581 13.2502 15.3248C13.1835 15.4081 13.1002 15.4456 13.0002 15.4373C12.9002 15.429 12.8169 15.3915 12.7502 15.3248L9.9502 12.5248C9.8002 12.3748 9.7252 12.1998 9.7252 11.9998C9.7252 11.7998 9.8002 11.6248 9.9502 11.4748L12.7502 8.6748C12.8169 8.60814 12.9002 8.57064 13.0002 8.5623C13.1002 8.55397 13.1835 8.59147 13.2502 8.6748C13.3169 8.74147 13.346 8.8248 13.3377 8.9248C13.3294 9.0248 13.2919 9.10814 13.2252 9.1748L10.4002 11.9998ZM11.9959 20.6998C13.1988 20.6998 14.3299 20.4716 15.3892 20.0151C16.4485 19.5586 17.3699 18.939 18.1534 18.1563C18.9371 17.3736 19.5574 16.4534 20.0144 15.3956C20.4716 14.3376 20.7002 13.2071 20.7002 12.0041C20.7002 10.8012 20.4719 9.67014 20.0154 8.6108C19.5589 7.55147 18.9394 6.63005 18.1567 5.84655C17.374 5.06289 16.4538 4.44255 15.3959 3.98555C14.3379 3.52839 13.2074 3.2998 12.0044 3.2998C10.8016 3.2998 9.67053 3.52806 8.6112 3.98456C7.55186 4.44106 6.63044 5.06064 5.84694 5.8433C5.06328 6.62597 4.44294 7.54622 3.98594 8.60405C3.52878 9.66205 3.3002 10.7926 3.3002 11.9956C3.3002 13.1984 3.52845 14.3295 3.98495 15.3888C4.44145 16.4481 5.06103 17.3696 5.84369 18.1531C6.62636 18.9367 7.54661 19.5571 8.60444 20.0141C9.66244 20.4712 10.7929 20.6998 11.9959 20.6998ZM12.0002 19.9998C9.76686 19.9998 7.8752 19.2248 6.3252 17.6748C4.7752 16.1248 4.0002 14.2331 4.0002 11.9998C4.0002 9.76647 4.7752 7.8748 6.3252 6.3248C7.8752 4.7748 9.76686 3.9998 12.0002 3.9998C14.2335 3.9998 16.1252 4.7748 17.6752 6.3248C19.2252 7.8748 20.0002 9.76647 20.0002 11.9998C20.0002 14.2331 19.2252 16.1248 17.6752 17.6748C16.1252 19.2248 14.2335 19.9998 12.0002 19.9998Z" fill="black"/>
</svg>
